<?xml version="1.0" encoding="utf-8"?>
<!-- Generator: Adobe Illustrator 23.0.0, SVG Export Plug-In . SVG Version: 6.00 Build 0)  -->
<svg version="1.1" xmlns="http://www.w3.org/2000/svg" xmlns:xlink="http://www.w3.org/1999/xlink" x="0px" y="0px"
	 viewBox="0 0 233.1 233.1" style="enable-background:new 0 0 233.1 233.1;" xml:space="preserve">
<style type="text/css">
	.st0{fill:none;stroke:#F7670D;stroke-width:3;stroke-miterlimit:10;}
	.st1{fill:#1089FF;stroke:#F7670D;stroke-miterlimit:10;}
	.st2{fill:#FEFEFE;}
	.st3{display:none;}
	.st4{display:inline;}
	.st5{fill:#222222;}
	.st6{fill:#191818;}
	.st7{fill:#151413;}
	.st8{fill:#171514;}
	.st9{fill:#131211;}
	.st10{fill:#2F2E2C;}
	.st11{fill:#1D1D1B;}
	.st12{fill:#FEFAE0;}
</style>
<g id="Layer_1">
	<title>ny3Artboard 11</title>
	<circle class="st0" cx="576.1" cy="21.8" r="115.1"/>
	<path class="st1" d="M606.1-19.2c-0.2,5.2-1.7,10.3-4.5,14.6c-2.8,4.3-6.8,7.7-11.5,9.8c-5.3,2.4-11.1,3.6-16.9,3.5
		c-10.4,0-18.7-3.4-24.6-10.2c-6-6.8-9-16.4-9-28.8v-3.9c-0.1-7,1.3-14,4.1-20.4c2.5-5.6,6.5-10.3,11.7-13.6
		c5.3-3.2,11.5-4.9,17.7-4.8c9.6,0,17.4,2.5,23.2,7.6s9.2,12.1,10,21h-19.1c-0.2-4.8-1.4-8.3-3.7-10.4s-5.8-3.2-10.4-3.2
		c-4.8,0-8.2,1.8-10.5,5.3c-2.2,3.6-3.4,9.2-3.5,17.1v5.8c0,8.5,1.1,14.5,3.2,18.2s5.8,5.5,11,5.5c4.4,0,7.8-1,10.1-3.1
		c2.3-2,3.6-5.4,3.7-9.9L606.1-19.2z"/>
	<path class="st1" d="M537.2,68.2c0.1-2.5-1-5-2.9-6.5c-2-1.6-5.5-3.2-10.4-4.9c-4.2-1.3-8.3-3-12.2-4.9c-10.3-5-15.4-12-15.4-20.8
		c-0.1-4.2,1.3-8.3,3.8-11.6c2.8-3.6,6.6-6.3,10.8-7.9c5-1.9,10.4-2.9,15.8-2.8c5.3-0.1,10.5,1,15.4,3.1c4.3,1.8,8,4.9,10.6,8.7
		c2.5,3.8,3.8,8.3,3.8,12.9h-19.2c0.2-2.8-0.9-5.6-3-7.5c-2.3-1.9-5.1-2.8-8-2.7c-2.9-0.2-5.7,0.6-8.1,2.3c-1.9,1.3-3,3.5-3,5.8
		c0,2,1.1,3.9,3.3,5.5c2.2,1.7,6,3.4,11.5,5.1c4.7,1.4,9.2,3.4,13.5,5.7c8.6,4.9,12.9,11.8,12.9,20.4c0,6.9-2.6,12.4-7.9,16.4
		c-5.2,4-12.4,5.9-21.5,5.9c-6,0.1-12-1.1-17.5-3.5c-4.8-1.9-8.9-5.2-11.8-9.5c-2.7-4.1-4-9-3.9-13.9H513c0,4.2,1.1,7.4,3.3,9.4
		s5.8,3,10.7,3.1c2.7,0.1,5.3-0.6,7.5-2C536.3,72.6,537.4,70.4,537.2,68.2z"/>
	<path class="st1" d="M590.9,9.9l17.7,55.2l17.7-55.2h25.2v79.4h-19.2V70.8l1.9-37.9L615,89.4h-12.7L583,32.8l1.9,38v18.5h-19.1V9.9
		C565.8,9.9,590.9,9.9,590.9,9.9z"/>
	<g>
		<g>
			<path class="st2" d="M-834.7,275.3c0,63.9,0,127.9,0,191.8c0,0.9-0.2,1.2-1.2,1.2c-85.1,0-170.1,0-255.2,0
				c-0.9,0-1.2-0.2-1.2-1.2c0-127.9,0-255.9,0-383.8c0-0.9,0.2-1.2,1.2-1.2c85.1,0,170.1,0,255.2,0c0.9,0,1.2,0.2,1.2,1.2
				C-834.7,147.2-834.7,211.2-834.7,275.3z M-972.6,377.3c0.1,0.2,0.2,0.4,0.3,0.6c0,0.1,0,0.1,0.1,0.1c0.1,0.2,0.1,0.5,0.4,0.7
				c0,0.1,0,0.1,0.1,0.1c0.2,0.5,0.3,1,0.8,1.3c0,0,0,0,0,0c0.1,0.2,0.2,0.3,0.3,0.5c1.9,3.3,4,6.3,6.1,9.4c0.3,0.4,0.7,0.8,1.1,1.1
				c2.4,1.6,4.7,1.7,6.9,0.2c0.3-0.3,0.8-0.3,0.9-0.8c0.4-0.2,0.6-0.7,0.8-1c3.1-4.2,6.1-8.4,9.2-12.6c2.2-3,4.4-6,6.7-9.1
				c0.7,1,1.2,2,1.9,2.9c1.5,2.2,2.6,4.7,4.8,6.3c1.8,1.2,3.7,1.3,5.6,0.2c0.1,0,0.1,0,0.1-0.1c0.4-0.2,0.8-0.5,1.1-0.9l0,0
				c1.4-1.2,1.9-2.7,1.7-4.6c0-0.2,0-0.3,0-0.5c-0.1-1.2-0.8-2.1-1.5-3c-2.4-4.3-4.9-8.6-7.5-12.9c0-0.4-0.4-0.7-0.6-1.1l-0.1-0.1
				c-1.7-2.7-4.5-3.7-7.6-2.9c-2.1,0.6-3.5,2-4.7,3.6c-0.1,0-0.1,0.1-0.1,0.1c-0.3,0.4-0.5,0.7-0.8,1.1c0,0,0,0,0,0
				c-0.2,0.2-0.4,0.5-0.5,0.7l0,0c-0.4,0.3-0.6,0.6-0.8,1c-0.1,0.1-0.1,0.2-0.2,0.2c-0.2,0.3-0.4,0.5-0.5,0.8l0,0
				c-0.4,0.3-0.6,0.6-0.8,1l0,0c-0.3,0.2-0.5,0.4-0.6,0.8c-2,2.4-3.8,5-5.7,7.6c-0.7,0.9-1.4,1.9-2.1,2.8c0,0-0.1,0.1-0.1,0.1
				c-0.6,0.6-0.8,1.4-1.5,1.8l0,0c-0.9-1.8-2-3.4-3.1-5.1c0-0.1,0-0.1-0.1-0.1c-0.1-0.2-0.3-0.4-0.4-0.6c0-0.1,0-0.1-0.1-0.1
				c-0.2-0.4-0.5-0.7-0.7-1.1c0,0,0-0.1-0.1-0.1c-0.3-0.5-0.6-0.9-0.9-1.4c0-0.1,0-0.1-0.1-0.1c-1.1-1.7-2.1-3.4-3.2-5.1
				c0-0.1,0-0.1-0.1-0.1c-0.8-1.3-1.6-2.6-2.4-3.9c0-0.1,0-0.1-0.1-0.1c-1-1.5-1.9-3.1-2.9-4.6c0,0,0,0,0,0
				c-0.1-0.2-0.2-0.4-0.3-0.6c0-0.1,0-0.1-0.1-0.1c-0.4-0.6-0.8-1.3-1.2-1.9c0-0.1,0-0.1-0.1-0.1c-1.2-2-2.5-3.9-3.7-5.9
				c0,0,0-0.1-0.1-0.1c-1.1-1.7-2.1-3.5-3.2-5.2c-2.5-3.7-4.5-7.6-7.3-11c-0.1-0.1-0.2-0.2-0.2-0.2c-1.4-1.6-3-3-4.9-4
				c-0.6-0.5-1.4-0.9-2.1-1.2c-1-0.4-1.3-0.7-0.6-1.7c1.5-2.3,2.8-4.7,4.2-7.1c0.2-0.3,0.4-0.7,0.6-1c0,0,0.1-0.1,0.1-0.1
				c0.9-1.5,1.7-3.1,2.6-4.6c0,0,0,0,0,0c2.5-4.2,4.9-8.4,7.4-12.6c0.1,0,0.1-0.1,0.1-0.1c0.1-0.2,0.3-0.3,0.3-0.6
				c0-0.1,0.1-0.1,0-0.2c0.1-0.1,0.3-0.1,0.2-0.3c0-0.1,0.1-0.1,0-0.2c1.5-1.8,2.4-3.9,3.6-5.9c0,0,0.1-0.1,0.1-0.1
				c0.2-0.4,0.4-0.7,0.6-1.1c0,0,0,0,0,0c0.3-0.6,0.7-1.2,1-1.7c0.9-1.2,1.5-2.5,2.2-3.8c0.3-0.5,0.5-1,0.8-1.5c0,0,0,0,0,0
				c0.3-0.5,0.6-0.9,0.9-1.4c0,0,0.1-0.1,0.1-0.1c1.5-2.7,3.1-5.4,4.6-8.1c0.2-0.1,0.2-0.3,0.2-0.5c0.3-0.5,0.6-0.9,0.9-1.4
				c0.1,0,0.1-0.1,0.1-0.1c0.6-1,1.1-1.9,1.7-2.9l0.1-0.1c0.3-0.5,0.5-0.9,0.8-1.4c0.1-0.2,0.2-0.3,0.3-0.5c0.2-0.2,0.3-0.1,0.5,0
				l0,0c0.1,0.2,0.2,0.3,0.3,0.5c0.2,0.3,0.3,0.5,0.5,0.8l0,0c0,0.6,0.5,0.8,0.8,1.3l0,0c1.2,2.2,2.4,4.4,3.8,6.5l0,0
				c0.4,1.1,1.1,2.1,1.8,3l0,0c0.3,0.5,0.6,1,0.8,1.5c1.1,2.1,2.3,4.3,3.7,6.3c0.6,1.3,1.3,2.5,2.1,3.6c0,0.1,0,0.2,0.1,0.2
				c0.9,1.6,1.8,3.2,2.7,4.7c3.1,5.2,6.2,10.4,9.2,15.6c0,0.2,0.1,0.4,0.3,0.5c0.7,1.2,1.4,2.4,2.1,3.6c0,0.1,0,0.1,0.1,0.1
				c0.2,0.4,0.4,0.8,0.7,1.1c0,0.1,0,0.1,0.1,0.1c1,1.8,2.1,3.6,3.1,5.3l0,0c0.4,0.9,0.9,1.7,1.5,2.5l0,0c2.3,4.3,4.8,8.4,7.3,12.6
				c1.1,2.1,2.2,4.1,3.5,6l0,0c0.5,0.9,1.1,1.9,1.6,2.8c0,0.1,0,0.1,0.1,0.1c0.2,0.4,0.4,0.8,0.7,1.1c0,0.1,0,0.1,0.1,0.1
				c0.4,0.6,0.7,1.2,1.1,1.8c0,0.2,0.1,0.4,0.3,0.5c1.4,2.4,2.7,4.8,4.1,7.1c0,0,0,0.1,0.1,0.1c0.5,0.9,1.1,1.9,1.6,2.8
				c2.1,3.7,4.3,7.4,6.4,11c0.4,0.9,0.9,1.8,1.5,2.6c0,0.2,0,0.4,0.3,0.5c1.6,2.9,3.3,5.8,5,8.6l0,0c0.1,0.5,0.4,0.9,0.8,1.3
				c0,0.1,0,0.1,0.1,0.2c0.7,1.3,1.5,2.5,2.2,3.8l0,0c0.9,1.5,1.7,3.1,2.6,4.6c0,0,0,0.1,0.1,0.1c0.6,1,1.2,2.1,1.9,3.1
				c0,0.2,0,0.4,0.2,0.4c0,0.6,0.5,0.9,0.8,1.3c0,0,0,0,0,0c0.3,1.1,0.9,1.5,2.1,1.5c4.3-0.1,8.5,0,12.8-0.1c0.3,0,0.7,0.2,1-0.2
				c-0.2-0.4-0.5-0.7-0.7-1.1c0-0.2,0-0.4-0.3-0.4c-0.2-0.3-0.3-0.5-0.5-0.8l0,0c-0.2-0.5-0.4-0.9-0.8-1.3c-0.1-0.1-0.2-0.3-0.3-0.4
				c-0.1-0.2-0.2-0.3-0.2-0.5c-2.4-4-4.7-8-7.1-12c-4.9-8.2-9.8-16.4-14.8-24.6c-2.1-3.6-4.3-7.1-6.5-10.6c-0.1-0.2-0.1-0.3-0.2-0.5
				c-3.6-5.9-7.1-11.7-10.7-17.6c-0.3-0.5-0.4-0.9-0.2-1.4c2.9-5,5.7-10.1,8.4-15.2c0,0,0.1-0.1,0.1-0.1c2.3-4.3,4.6-8.6,7-12.9
				c0,0,0.1-0.1,0.1-0.1c2-3.7,3.9-7.4,5.9-11.1c1-1.4,1.7-3,2.5-4.6c1.4-2.6,2.9-5,4.1-7.8c-5.4,0-10.6,0-15.8,0
				c-0.5,0-0.9,0.1-1.1,0.6c-0.7,1.5-1.5,2.9-2.3,4.4c-0.2,0.1-0.2,0.3-0.3,0.5c-0.6,0.9-1.1,1.7-1.5,2.7c-3.3,6.2-6.7,12.3-10,18.5
				c-1.6,2.9-3.1,5.8-4.6,8.7c-1.7-2.8-3.3-5.4-4.9-8.1c-0.8-1.7-1.7-3.2-2.8-4.7l0,0c0-0.1,0-0.3-0.1-0.4
				c-4.1-6.8-8.2-13.7-12.2-20.5l0,0c-2.6-4.5-5.3-8.9-7.9-13.4c0,0,0-0.1-0.1-0.1c-0.7-1.2-1.4-2.4-2.1-3.6
				c-2.5-4.2-5-8.4-7.5-12.6c-0.3-0.5-0.7-1-1.2-1.2c-0.6-0.5-1.3-0.9-2.1-1c-0.2,0-0.3,0-0.5,0c-0.3,0-0.7,0-1,0
				c-0.2,0-0.3,0-0.5,0c-0.8,0.1-1.6,0.3-2.1,1l-0.1,0l0,0.1c-1,0.6-1.3,1.6-1.9,2.5c0,0-0.1,0.1-0.1,0.1c-0.2,0.4-0.5,0.8-0.7,1.2
				c0,0-0.1,0.1-0.1,0.1c-0.7,1.2-1.4,2.4-2.1,3.6l0,0c-2.2,3.5-4.3,7-6.3,10.6c0,0,0,0,0,0c-0.6,1-1.2,2.1-1.8,3.1
				c-0.1,0-0.1,0.1-0.1,0.1c-0.2,0.4-0.4,0.7-0.6,1.1c-0.3,0.4-0.6,0.9-0.9,1.3c0,0-0.1,0.1-0.1,0.1c-1.4,2.4-2.7,4.7-4.1,7.1l0,0
				c-0.4,0.6-0.7,1.2-1.1,1.8c-0.1,0-0.1,0.1-0.1,0.1c-0.3,0.6-0.7,1.2-1,1.9c-0.7,1.2-1.4,2.4-2.1,3.5c-0.1,0-0.1,0.1-0.1,0.1
				c-0.6,1-1.1,1.9-1.7,2.9l-0.1,0.1c-0.8,1.4-1.6,2.7-2.4,4.1l0,0c-0.2,0.1-0.2,0.3-0.3,0.5c-0.1,0.1-0.1,0.2-0.2,0.3
				c-0.1,0.3-0.3,0.5-0.4,0.8c-0.1,0.1-0.1,0.1,0,0.2c-0.2,0.1-0.3,0.3-0.3,0.5c-0.5,0.8-0.9,1.5-1.4,2.3c-0.1,0.1-0.1,0.1-0.1,0.2
				c-0.9,1.5-1.8,2.9-2.6,4.4c-0.1,0-0.1,0.1-0.1,0.1c-0.7,1.3-1.5,2.5-2.2,3.8c0,0,0,0.1,0,0.1c0,0.1,0,0.1,0.1,0.2c0,0,0,0,0,0
				c-0.1,0-0.1,0.1-0.2,0.1c-0.2,0.4-0.5,0.8-0.7,1.2c-0.1,0-0.1,0.1-0.1,0.1c-0.8,1.4-1.7,2.6-2.3,4.1c-0.1,0.1-0.2,0.2-0.2,0.2
				c-0.1,0-0.2,0-0.2,0l0,0c-2-3.8-3.9-7.6-5.9-11.3c-0.7-1.4-1.3-2.9-2.4-4l0,0c0-0.5-0.3-0.9-0.5-1.3c-1.6-3-3.3-6.1-4.9-9.1
				c-0.1-0.1-0.3-0.2-0.4-0.3l0,0l0.1,0c0,0,0-0.1,0-0.1c-1.2-2.3-2.5-4.5-3.7-6.8c-0.5-2-1.7-3-3.9-2.5c-0.2,0.1-0.5,0-0.8,0
				c-4.5,0-8.9,0-13.6,0c1.8,3.3,3.5,6.4,5.2,9.6c0.4,0.7,0.8,1.5,1.2,2.2c3.7,6.8,7.4,13.6,11.1,20.5c0,0.1,0,0.1,0.1,0.1
				c0.6,1.1,1.1,2.3,1.9,3.3c0,0.1,0,0.1,0,0.2c0.6,1,1.1,2,1.7,3c0,0.2,0,0.4,0.3,0.5c0.1,0.6,0.5,1,0.8,1.5c1.6,3,3.2,6,4.8,9
				c0.3,0.6,0.3,1,0,1.5c-0.8,1.3-1.5,2.6-2.2,3.9c-1.4,2.4-2.8,4.7-4.2,7.1c0,0-0.1,0.1-0.1,0.1c-0.3,0.5-0.6,1.1-0.9,1.6
				c-0.1,0-0.1,0.1-0.1,0.1c-1.6,2.7-3.1,5.4-4.7,8.2c0,0-0.1,0.1-0.1,0.1c-0.3,0.5-0.5,0.9-0.8,1.4l0.1,0.1l0.1,0l0,0
				c-0.1,0.1-0.3,0.2-0.4,0.3c-0.2,0.4-0.5,0.9-0.7,1.3c-3.2,5.5-6.4,11.1-9.6,16.6c-1.2,2.1-2.4,4.2-3.7,6.3
				c-0.1,0-0.1,0.1-0.1,0.1c-2,3.5-4,6.9-5.9,10.4c-0.1,0-0.1,0.1-0.1,0.1c-0.2,0.3-0.3,0.6-0.5,0.8c0,0,0,0,0,0
				c-0.2,0.3-0.3,0.5-0.5,0.8c0,0-0.1,0.1-0.1,0.1c-1,1.7-2,3.4-2.9,5.1c-0.1,0-0.1,0.1-0.1,0.1c-1.3,2.3-2.7,4.6-4.1,7.1
				c0.4,0,0.6,0,0.8,0c4.9,0,9.9,0,14.8,0c1.1,0,1.8-0.3,2.1-1.4c0-0.2-0.1-0.3-0.3-0.2c0.3,0,0.4-0.1,0.4-0.4
				c0.1,0,0.1,0.1,0.2,0.1c0.3-0.4,0.5-0.9,0.8-1.3c0.1-0.2,0.1-0.5,0.2-0.7l0.1,0c0.4,0,0.4-0.4,0.5-0.6c0.3-0.5,0.5-0.9,0.8-1.4
				c0-0.2-0.1-0.3-0.3-0.2c0.3,0,0.4-0.1,0.4-0.4c0.1,0,0.2,0.1,0.2,0.1c0-0.1,0.1-0.2,0.1-0.3c1.1-1.8,2.1-3.7,3.2-5.5
				c0-0.1,0-0.2,0.1-0.3c2.6-4.6,5.3-9.3,7.9-13.9c0.1,0,0.1-0.1,0.1-0.1c0.4-0.7,0.7-1.4,1.1-2c0.3-0.1,0.3-0.4,0.3-0.6
				c0.3-0.5,0.6-0.9,0.7-1.4c0,0,0,0,0,0c0.1-0.1,0.3-0.3,0.4-0.4c2.3-4.1,4.6-8.2,6.9-12.2c0,0,0.1-0.1,0.1-0.1
				c1.4-2.4,2.8-4.8,4.2-7.2c1.3-2.2,2.6-4.3,3.7-6.6c0.2-0.1,0.3-0.3,0.6-0.2c4.9,1.5,8.9,4.1,11.7,8.6c2.3,3.8,4.8,7.5,7.2,11.2
				c0.2,0.7,0.7,1.2,1.1,1.8l0.1,0.1c0.2,0.3,0.4,0.6,0.6,0.9c0,0,0,0,0,0c0.5,0.9,1.1,1.7,1.6,2.6c0,0.1,0,0.1,0.1,0.1
				c0.2,0.4,0.4,0.7,0.7,1.1c0,0,0,0.1,0.1,0.1c0.5,0.7,0.9,1.4,1.4,2.1l0,0c0.1,0.2,0.2,0.4,0.3,0.6c0,0.1,0,0.1,0.1,0.1
				c0.1,0.2,0.3,0.4,0.4,0.6c0,0.1,0,0.1,0.1,0.1c0.5,0.9,1,1.8,1.7,2.6c0,0.1,0,0.1,0.1,0.1c0.3,0.4,0.6,0.9,0.8,1.3
				c0.1,0.2,0.2,0.4,0.3,0.6c0,0.1,0,0.1,0.1,0.1c0.1,0.2,0.3,0.4,0.4,0.6c0,0.1,0,0.1,0.1,0.1c0.4,0.6,0.8,1.2,1.2,1.9
				c0,0.1,0,0.1,0.1,0.1c0.9,1.4,1.7,2.7,2.6,4.1l0,0C-972.9,376.8-972.8,377-972.6,377.3L-972.6,377.3z M-953,192.7L-953,192.7
				c0.1,0.3,0.2,0.6,0.5,0.8l0,0c0.1,0.5,0.5,0.9,0.8,1.3l0,0c0.1,0.3,0.2,0.6,0.5,0.8l0,0c0.5,1,1.1,1.9,1.8,2.8l0,0
				c0.1,0.3,0.2,0.6,0.5,0.8l0,0c0.5,1,1,2,1.8,2.8c0,0.2,0.1,0.4,0.3,0.4c0.5,0.8,1,1.5,1.5,2.3l0,0c0.1,0.2,0.2,0.3,0.3,0.5
				c1,1.8,2.1,3.4,3.2,5.1c0.1,0.2,0.2,0.4,0.3,0.5c0,0,0,0.1,0.1,0.1c1.4,2.1,2.7,4.2,4.1,6.4l0,0c0.5,1,1.1,1.9,1.8,2.8
				c0,0.1,0.1,0.2,0.1,0.2c0.2,0.3,0.3,0.5,0.5,0.8l0.1,0.1c0.5,0.7,0.9,1.4,1.4,2.2c0,0.1,0,0.1,0.1,0.1c1.9,3,3.8,5.9,5.7,8.9
				c0,0.1,0,0.1,0.1,0.1c0.7,1.1,1.4,2.3,2.2,3.4c0,0.1,0,0.1,0.1,0.1c0.4,0.6,0.8,1.3,1.2,1.9l0.1,0.1c0.3,0.4,0.6,0.9,0.9,1.3
				c1.3,2.2,2.7,4.5,4.2,6.6c0.1,0.2,0.2,0.4,0.3,0.6c0,0.1,0,0.1,0.1,0.1c0.2,0.2,0.3,0.5,0.5,0.7c0,0,0.1,0.1,0.1,0.1
				c0.8,1.3,1.6,2.6,2.5,4c1.6-2.8,3-5.4,4.3-8.1c0.1-0.1,0.1-0.1,0-0.2c1.4-2.4,2.6-4.9,3.9-7.4c0,0,0,0,0,0c0.5-1,1-1.9,1.4-2.9
				c0.2-0.2,0.3-0.5,0.5-0.7c3.5-6.9,7-13.7,10.6-20.6c3-5.8,6-11.6,9-17.4c-0.2-0.1-0.4-0.1-0.5-0.1c-4.4,0-8.9-0.1-13.3-0.1
				c-0.5,0-0.6,0.2-0.8,0.6c-2,3.9-4.1,7.8-6.2,11.7c-3.5,6.6-7,13.2-10.6,19.9c-0.2-0.3-0.3-0.4-0.4-0.6
				c-6.6-10.3-13.3-20.7-19.9-31c-4.9-7.7-9.9-15.3-14.9-23c-2.3-3.6-4.6-7.2-7-10.8c-2.1-3.3-5.8-3.4-8-0.2
				c-0.9,1.4-1.8,2.8-2.7,4.2c-2.9,4.5-5.8,9.1-8.7,13.6c-0.1,0.2-0.2,0.3-0.3,0.5l0,0c-0.3,0.2-0.4,0.5-0.5,0.8c0,0,0,0,0,0
				c-0.6,0.9-1.2,1.9-1.9,2.8c0,0-0.1,0.1-0.1,0.1c-0.1,0.2-0.2,0.4-0.3,0.6l0,0c-0.3,0.4-0.6,0.9-0.9,1.3c-0.1,0-0.1,0.1-0.1,0.1
				c-0.3,0.4-0.5,0.9-0.8,1.3l0,0c-0.5,0.6-1,1.3-1.3,2l0,0c-0.2,0.3-0.4,0.6-0.6,0.8c0,0-0.1,0.1-0.1,0.1c-0.3,0.5-0.6,0.9-0.9,1.4
				l-0.1,0.1c-0.3,0.6-0.9,1.1-1.1,1.8c-0.1,0-0.2,0.1-0.2,0.1c-5.8,8.9-11.6,17.9-17.4,26.8c-1.4,2.2-2.8,4.4-4.3,6.6
				c-1-1.9-2-3.7-2.9-5.4c-4.5-8.5-9.1-17.1-13.6-25.6c-0.1-0.7-0.6-0.7-1.2-0.7c-2.8,0-5.5,0-8.3,0c-1.9,0-3.8,0-5.8,0
				c2.1,3.9,4.2,7.8,6.3,11.6c1.9,4.1,4.1,8.1,6.3,12.1c0,0.1,0,0.1,0.1,0.2c0.1,0.2,0.2,0.4,0.3,0.6c0.3,0.6,0.6,1.1,0.9,1.7
				c0.5,1,1,2,1.6,3c1.8,3.6,3.7,7.3,5.5,10.9c3,5.8,6.1,11.5,9.2,17.4c0.6-1,1.2-1.8,1.7-2.6c6.9-10.8,13.8-21.5,20.7-32.3
				c5.1-8,10.2-16,15.3-24c0.5-0.8,1.1-1.7,1.6-2.5c0.1,0,0.1-0.1,0.1-0.1c0.4-0.6,0.8-1.2,1.2-1.9c0.1,0,0.1-0.1,0.1-0.1
				c0.4-0.6,0.7-1.2,1.1-1.8l0,0c1.2-1.9,2.4-3.8,3.6-5.6l0.1-0.1c0.1-0.2,0.3-0.3,0.3-0.6c0.7-1,1.3-1.9,2-3c0.3,0.4,0.7,0.8,1,1.2
				c0.9,1.8,2.1,3.4,3.1,5.1l0.1,0.1c0.1,0.2,0.3,0.4,0.4,0.7c0,0.1,0,0.1,0.1,0.1c0.4,0.6,0.8,1.3,1.2,1.9c0,0.1,0,0.1,0.1,0.1
				c0.7,1.1,1.4,2.3,2.2,3.4c0,0.1,0,0.1,0.1,0.1c0.1,0.2,0.1,0.6,0.4,0.7c0,0,0,0.1,0.1,0.1c0.4,0.7,0.9,1.4,1.3,2
				C-953.4,192.2-953.3,192.5-953,192.7z"/>
		</g>
	</g>
</g>
<g id="Layer_2" class="st3">
	<g class="st4">
		<path class="st5" d="M-352.3,44.3c0.1-0.1,0.2-0.2,0.2-0.2c0.3,0,0.6-0.1,0.7-0.4c0.6-1,1.2-2.1,1.8-3.2c0.1-0.1-0.1-0.4-0.2-0.6
			c0-0.1,0-0.1,0.1-0.1c1.3,0.2,0.8-0.6,0.7-1.2c0.1,0,0.1-0.1,0.2-0.1c0,0.1,0.1,0.2,0.2,0.1c-0.1,0-0.1-0.1-0.2-0.1
			c0-0.1-0.1-0.1-0.1-0.2c0,0,0-0.1,0-0.1c1.2-0.2,2.6-2.6,2.2-3.8c0-0.1,0-0.1,0.1-0.1c0.7,0.4,0.9-0.1,1.1-0.6
			c0.4-1,0.9-1.9,1.5-2.8c0.2-0.3,0.7-0.7,0-1c0-0.1,0-0.2,0.1-0.2c1.2-0.1,1.2-1.3,1.7-2c0-0.3,0-0.5,0-0.8c0-0.1,0-0.1,0-0.2
			c0.2,0,0.3,0,0.5,0c0.1-0.1,0.2-0.2,0.2-0.2c0-0.1,0-0.2,0-0.3c0,0,0.1-0.1,0.1-0.1c0-0.1-0.1-0.1-0.1-0.2c-0.1,0-0.2,0-0.3,0
			c0.1-0.1,0.1-0.2,0.2-0.3c0.3-0.1,0.3-0.3,0.3-0.5c0,0,0,0,0,0c1.1-0.2,2.4-2.6,2.4-4.1c0,0,0.1-0.1,0.1-0.1c1-0.1,2-1.7,1.7-2.9
			c0-0.1,0-0.1,0.1-0.1c0.2,0.2,0.4,0.1,0.6-0.1c0.9-1,1.6-2.1,1.8-3.4c0.9-0.3,1.1-1,0.8-1.9c0-0.1,0-0.1,0.1-0.1
			c0.4,0.3,0.7,0.1,0.8-0.3c0.1-0.5,0.4-1,0.3-1.5l0,0c0.9-0.2,1.3-0.9,1.6-1.7c0.4-1,1-1.9,1.5-2.8c0.5-0.8,1.4-1.4,1-2.6
			c0,0,0-0.1,0.1-0.1c1,0.3,0.9-0.6,1.1-1.1c0.6-0.3,0.6-0.8,0.3-1.3c0-0.1,0-0.1,0.1-0.1c0.1,0,0.3,0.1,0.3,0.1
			c0.7-1,1.7-1.8,1.5-3.2c0,0,0,0,0,0c0.8-0.3,1.1-1,1.5-1.6c1.1-1.8,2.3-3.6,3.2-5.6c0.5-1.1,2-1.8,1.5-3.4c0,0,0,0,0,0
			c1.4-0.8,2.2-1.9,2.1-3.6c0,0,0.1-0.1,0.1-0.1c1.1,0.1,0.9-0.5,0.7-1.2c0,0,0-0.1,0.1-0.1c0.8,0,1.7-1.3,1.9-2.5l0-0.1
			c0,0,0.1,0,0.1,0c0.8,0,1.7-0.1,2.1-1c0.2,0,0.3,0,0.5,0c0.3,0.4,0.7,0.4,1,0c0.2,0,0.3,0,0.5,0c0.5,0.8,1.3,0.9,2.1,1
			c0.5,0.3,0.9,0.7,1.2,1.2c2.5,4.2,5,8.4,7.5,12.6c-0.2,0.1-0.4,0.3-0.3,0.4c0.6,1,1.2,2.1,1.8,3.1c0.1,0.2,0.4,0.2,0.7,0
			c0,0,0.1,0.1,0.1,0.1c-0.1,0.2-0.1,0.4-0.1,0.6c0.1,1.5,1.4,2.3,1.9,3.6c0.5,1.4,1.7,2.4,2.3,3.7c0.8,1.8,2.2,3.4,3.1,5.1
			c0.1,0.2,0.4,0.5,0.7,0.4c0,0,0,0,0,0c0,0.2,0,0.5,0.1,0.7c0.6,1.5,1.3,2.8,2.2,4.1c1,1.5,1.8,3.1,2.8,4.7
			c1.8,3.1,3.7,6.2,5.4,9.3c0.4,0.8,0.8,1.8,1.9,2c0,0,0,0,0,0c0,0.2-0.1,0.4,0,0.6c0.4,1.6,1.8,2.8,2.4,4.3c0.1,0.1,0.3,0,0.4-0.2
			c1.6,2.7,3.2,5.3,4.9,8.1c1.6-2.9,3.1-5.8,4.6-8.7c3.3-6.2,6.7-12.3,10-18.5c1,0,1.9-1.7,1.5-2.7c0-0.2,0-0.4,0.3-0.5
			c1.4-0.7,1.8-2.1,2.4-3.3c0.4-0.9,0.8-1,1.6-1c4.3,0,8.7,0,13,0c0.3,0,0.6,0,0.9,0.1c0.3,0.1,0.4,0.3,0.2,0.5
			c-1.5,1.6-2.1,3.7-3.2,5.5c-0.3,0.4-0.2,0.7,0.2,0.9c-0.8,1.6-1.5,3.2-2.5,4.6c-0.3-0.4-0.4-0.1-0.6,0.1c-1,1.2-1.2,2.7-2.1,3.9
			c-1.3,1.8-1.9,4.1-3.3,5.9c-0.2,0.3-0.1,0.8,0.1,1.2c0,0.1,0,0.1-0.1,0.1c-0.5-0.3-0.5,0.1-0.7,0.4c-1.4,1.9-2,4.3-3.4,6.2
			c-1.1,1.5-1.5,3.5-2.8,5c-0.4,0.4-0.3,0.9,0,1.4c0,0,0,0.1-0.1,0.1c-0.8-0.4-0.9,0.4-1.1,0.8c-1.7,3.1-3.4,6.1-5,9.2
			c-0.8,1.6-2,2.9-2.6,4.6c-0.7-0.1-0.7,0.3-0.5,0.8c0.5,1.9,1.6,3.5,2.7,5.1c2.1,3.4,4.2,6.8,6.2,10.2c0.4,0.7,1.2,1.4,0.7,2.4
			c-0.1,0.2,0,0.5,0.3,0.6c0.6,0.1,0.9,0.5,1.2,0.9c0.2,0.3,0.4,0.4,0.7,0c2.2,3.5,4.4,7.1,6.5,10.6c4.9,8.2,9.9,16.4,14.8,24.6
			c2.4,4,4.7,8,7.1,12c-0.4,0.4-0.1,0.4,0.2,0.5c0.1,0.1,0.2,0.3,0.3,0.4c0,0.6,0,1.2,0.8,1.3l0,0c0,0.4-0.1,0.8,0.5,0.8
			c0.2,0.1,0.2,0.2,0.3,0.4c0,0.3,0,0.6-0.3,0.8c-0.4-0.4-0.9-0.2-1.3-0.2c-4.3,0-8.5,0-12.8,0c-0.2-0.3-0.3-0.8-0.8-0.7
			c0,0,0,0,0,0c0-0.6,0-1.2-0.8-1.3c-0.2-0.1-0.2-0.3-0.2-0.4c0.1-1.2-1-2-1.2-3.1c-0.1-0.2-0.4-0.2-0.7,0c0,0-0.1-0.1-0.1-0.1
			c0.3-1.1-1.3-3.8-2.6-4.6c0,0,0,0,0,0c0.1-0.7-0.2-1.5-0.6-2c-0.6-0.6-0.4-1.9-1.6-1.8c-0.1,0-0.1-0.1-0.1-0.2
			c0.4-0.8,0-1.2-0.8-1.3c0,0,0,0,0,0c0.1-0.6-0.1-1.2-0.4-1.7c-1-1.8-2.3-3.4-3.1-5.3c-0.2-0.5-0.5-1.6-1.5-1.5
			c-0.2-0.1-0.2-0.3-0.3-0.5c0.4-1-0.2-1.9-1.5-2.6c-2.1-3.7-4.3-7.4-6.4-11c0.4-1.3-0.5-2-1.1-2.8c-0.1-0.2-0.4-0.1-0.6,0
			c0,0-0.1-0.1-0.1-0.1c0.5-0.8,0-1.4-0.5-1.9c-0.7-1-1.3-2-1.8-3.1c-0.4-0.8-0.6-2-1.9-2.1c-0.2-0.1-0.2-0.3-0.3-0.5
			c-0.1-0.8,0.3-1.9-1.1-1.8c-0.1,0-0.1-0.1-0.1-0.1c0.3-1.1,0.2-1.2-0.7-1.1c-0.1,0-0.1-0.1-0.1-0.1c0.3-1.2-0.2-2.2-1.6-2.8
			c0,0,0,0,0,0c-0.4-2.5-1.9-4.3-3.2-6.3c-0.7-1.3-1.5-2.7-2.2-4c-0.9-1.8-2.2-3.5-3.1-5.3c-0.6-1.1-1.1-2.3-2.3-2.9c0,0,0,0,0,0
			c0.2-1.2-0.4-2.1-1.5-2.5c0,0,0,0,0,0c0.2-0.9-0.1-1.6-0.6-2.3c-0.7-0.8-1.3-1.7-1.6-2.7c-0.2-0.4-0.4-0.6-0.8-0.3
			c-0.1,0-0.1-0.1-0.1-0.1c0.3-0.7,0.5-1.3-0.7-1.1c0,0-0.1-0.1-0.1-0.1c0.3-1.2-0.6-2.8-2.1-3.6c-0.2-0.1-0.3-0.3-0.3-0.5
			c0.4-0.5,0.1-0.9-0.2-1.4c-1.1-1.8-2.3-3.6-3.2-5.4c-1-2-2.3-3.7-3.3-5.6c-1-1.9-2.1-3.7-3.1-5.6c-0.5-0.9-0.7-2.2-2.1-2.4
			c-0.1-0.1-0.1-0.1-0.1-0.2c0.4-0.1,0.4-0.4,0.2-0.6c-0.4-0.8-0.8-1.7-1.3-2.5c-0.2-0.4-0.6-0.5-1-0.5c-1.4-2-2.5-4.1-3.7-6.3
			c0-0.7,0.3-1.5-0.8-1.5c0,0,0,0,0,0c0-1.4-0.6-2.3-1.8-3c0,0,0,0,0,0c0-0.3,0-0.6-0.1-0.9c-0.8-1.6-1.9-3.1-2.6-4.8
			c-0.2-0.5-0.5-0.9-1.1-0.9c0,0,0,0,0,0c0-0.6,0-1.2-0.8-1.3c0,0,0,0,0,0c0-0.3,0.1-0.6-0.2-0.8c-0.1-0.2-0.3-0.4-0.5-0.5
			c0,0,0,0,0,0c0-0.1,0-0.2,0-0.3c0-0.2,0-0.3-0.2-0.4c-0.1,0-0.2,0.1-0.3,0.2c-0.2,0.2-0.3,0.3,0,0.5c-0.1,0.2-0.2,0.3-0.3,0.5
			c-0.9,0.1-0.9,0.7-0.8,1.4c0,0-0.1,0.1-0.1,0.1c-1.1,0.2-1.8,1.4-1.7,2.9c0,0.1,0,0.1-0.1,0.1c-1.3-0.2-0.7,0.8-0.9,1.4
			c0,0.2,0,0.4-0.2,0.5c-0.4,0-0.5,0.2-0.7,0.4c-1.7,1.9-2.4,4.4-3.9,6.4c-0.3,0.4-0.3,0.8-0.1,1.3c0,0-0.1,0.1-0.1,0.1
			c-1.3-0.2-0.8,0.8-0.9,1.4l0,0c-0.9,0.1-1,0.7-0.8,1.5c-0.7,1.3-1.4,2.6-2.2,3.8c-0.4-0.5-0.6-0.2-0.7,0.2c-0.1,0.5-0.4,1-0.3,1.6
			c0,0,0,0,0,0c-0.7,0.1-0.9,0.4-0.6,1.1c0,0.1,0,0.1-0.1,0.1c-0.2-0.2-0.6-0.2-0.7,0c-0.8,2-2.6,3.6-3,5.8c0,0.1,0,0.1,0,0.2
			c-0.1,0.1-0.1,0.2-0.2,0.3c0,0.1,0,0.1,0,0.2c-0.4,0.1-0.5,0.2-0.3,0.6c0,0.1,0,0.1-0.1,0.1c-0.4-0.3-0.7-0.2-0.8,0.2
			c-0.2,1-0.9,1.7-1.4,2.4c-1.6,2.6-2.8,5.4-4.6,7.9c-0.4,0.6-0.8,1.3-0.6,2.1l0,0c-1.1,0.7-1.7,1.7-2.2,2.8c-0.3,0.6-0.9,1-0.4,1.8
			c0,0,0,0.1-0.1,0.1c-0.4-0.3-0.6-0.1-0.9,0.3c-0.2,0.3-0.2,0.6,0.2,0.8c-1.4,2.4-2.7,4.8-4.2,7.1c-0.7,1-0.4,1.4,0.6,1.7
			c0.8,0.3,1.5,0.7,2.1,1.2c-0.4,0.3-0.1,0.4,0.1,0.6c1,1,2.5,1.5,3.2,2.7c0.4,0.7,0.9,0.8,1.6,0.6c0.1,0.1,0.2,0.2,0.2,0.2
			c-0.7,1-0.6,1.6,0.4,1.8c0.5,0.1,0.8,0.5,0.9,0.8c0.8,1.7,2,3,2.9,4.6c1.7,3,3.6,5.9,5.4,8.7c0.2,0.3,0.4,0.5,0.8,0.2
			c0,0,0.1,0.1,0.1,0.1c-0.6,0.9,0.4,1.3,0.6,1.9c0.5,1.4,1.4,2.5,2.3,3.7c0.2,0.3,0.4,0.6,0.8,0.3c0.1,0,0.1,0.1,0.1,0.1
			c-0.2,1.3,0.1,1.9,1.2,1.9c0.1,0,0.1,0.1,0.1,0.1c-0.3,0.4-0.1,0.5,0.3,0.6c0,0,0,0,0,0c-0.1,0.8,0.4,1.3,0.7,1.9
			c0.4,0.7,0.9,1.3,1,2.1c0.1,0.9,0.5,0.9,1.2,0.6c0.1,0,0.1,0.1,0.1,0.1c0.1,1.6,0.9,2.8,1.9,4c0.1,0.2,0.4,0.1,0.6-0.1
			c0,0,0.1,0.1,0.1,0.1c-0.2,0.3-0.2,0.5-0.1,0.8c0.7,1.5,1.7,2.9,2.6,4.3c0.2,0.2,0.4,0.2,0.7,0c0.1,0,0.1,0.1,0.1,0.1
			c-0.3,0.9-0.3,1.5,0.9,1.4c0,0,0.1,0.1,0.1,0.1c-0.1,0.6-0.3,1.2,0.7,1.1c0.1,0,0.1,0.1,0.1,0.1c-0.1,0.2-0.2,0.4-0.1,0.6
			c0.1,0.2,0.3,0.1,0.5,0c0,0,0.1,0.1,0.1,0.1c-0.3,0.5-0.2,1,0.1,1.4c0.7,1.1,1.4,2.2,2.1,3.3c0.2,0.4,0.5,0.5,0.9,0.5l0,0
			c0.1,0.7,0.8,0.7,0.9,0.3c0.2-0.7,1.2-1.2,0.6-2.2c0,0,0-0.1,0.1-0.1c0.8,0,2.3-1.6,2.3-2.5c0-0.1-0.1-0.2-0.2-0.3
			c1.9-2.6,3.7-5.1,5.7-7.6c0.6,0,0.6-0.3,0.6-0.8c0,0,0,0,0,0c0.7,0,0.8-0.4,0.8-1c0,0,0,0,0,0c0.6,0,0.5-0.4,0.5-0.8
			c0.1-0.1,0.1-0.2,0.2-0.2c0.7,0,0.9-0.4,0.8-1c0,0,0,0,0,0c0.6,0,0.5-0.4,0.5-0.7l0,0c0.8,0,1.3-0.2,0.8-1.1c0-0.1,0-0.1,0.1-0.1
			c1,0.4,1.3-0.6,1.7-1.1c1.6-1.6,3.4-2.7,5.7-2.2c1.1,0.2,2.2,0.3,3.1,1.2c0.5,0.5,0.7,1.7,1.8,1.3c0,0,0.1,0.1,0.1,0.1
			c-0.3,1.1-0.2,1.2,0.6,1.1c2.6,4.2,5.1,8.5,7.5,12.9c-0.2,0.9,0.7,2.7,1.5,3c0,0.2,0,0.3,0,0.5c-0.7,1.5-1.3,3-1.7,4.6
			c0,0,0,0,0,0c-0.5,0.1-1.4-0.3-1.1,0.9c0,0.1-0.1,0.1-0.1,0.1c-0.2-0.1-0.4-0.2-0.6-0.1c-1.6,0.6-3.1,0.5-4.5-0.2
			c-0.2-0.1-0.4-0.1-0.5,0.2c-2.2-1.7-3.3-4.2-4.8-6.3c-0.6-0.9-1.2-1.9-1.9-2.9c-2.3,3.1-4.4,6.1-6.7,9.1
			c-3.1,4.2-6.1,8.4-9.2,12.6c-0.7,0-0.9,0.4-0.8,1c-0.2,0.4-0.6,0.5-0.9,0.8c-2.3,0.4-4.5,0.8-6.7-0.4c0,0-0.1,0.1-0.2,0.2
			c-0.4-0.4-0.8-0.7-1.1-1.1c-2.1-3.1-4.3-6.2-6.1-9.4c0.4-0.5,0-0.5-0.3-0.5c0,0,0,0,0,0c0-1.2,0-1.3-0.8-1.3
			c-0.1,0-0.1-0.1-0.1-0.1c0.1-0.2,0.2-0.4,0.1-0.6c-0.1-0.2-0.3-0.1-0.5,0c0,0-0.1-0.1-0.1-0.1c0.3-0.4,0.1-0.6-0.3-0.6
			c0,0,0,0,0,0c0-0.4,0.1-0.8-0.5-0.8c0,0,0,0,0,0c-0.2-1.6-1-2.9-1.9-4.1c-0.2-0.2-0.4-0.2-0.7,0c-0.1,0-0.1-0.1-0.1-0.1
			c0.2-1.2-0.2-1.9-1.2-1.9c-0.1,0-0.1-0.1-0.1-0.1c0.1-0.2,0.2-0.4,0.1-0.6c-0.1-0.2-0.3-0.1-0.5,0c0,0-0.1-0.1-0.1-0.1
			c0.1-0.2,0.1-0.4,0.2-0.6c-0.6-0.3,0-1.8-1.4-1.3c0,0-0.1-0.1-0.1-0.1c0.1-0.8-0.7-2.5-1.3-2.8c-0.1,0-0.2,0.1-0.3,0.1
			c-0.1,0-0.1-0.1-0.1-0.1c0.1-0.2,0.2-0.4,0.1-0.6c-0.1-0.2-0.3-0.1-0.5,0c-0.1,0-0.1-0.1-0.1-0.1c0.3-0.4,0.1-0.6-0.3-0.6
			c0,0,0,0,0,0c0.1-0.5-0.1-0.9-0.4-1.3c-0.2-0.4-0.1-1.2-1-0.8c0,0-0.1-0.1-0.1-0.1c0.3-1.1,0.2-1.2-0.7-1.1
			c-0.1,0-0.1-0.1-0.1-0.1c0.1-1.4-0.5-2.4-1.6-2.6c0,0,0,0,0,0c-0.1-0.3,0.4-1.1-0.6-0.9c0,0-0.1-0.1-0.1-0.1
			c0.2-1.3-0.2-2-1.1-1.8c-2.4-3.7-4.9-7.5-7.2-11.2c-2.8-4.5-6.8-7.1-11.7-8.6c-0.3-0.1-0.4,0.1-0.6,0.2c-0.4-0.5-0.5,0-0.7,0.2
			c-0.6,1.2-1.4,2.3-2.1,3.5c-1.3,2.5-3,4.9-4.3,7.5c-0.4,0.8-1.5,1.5-0.8,2.7c0,0,0,0.1-0.1,0.1c-0.6-0.4-0.8,0.2-1,0.6
			c-0.4,0.7-0.6,1.5-1,2.1c-1.9,2.6-3.3,5.5-4.9,8.2c-0.3,0.5-0.6,1.1-0.4,1.8c0,0,0,0,0,0c-1,0.1-0.8,0.8-0.7,1.4
			c-0.1,0.2,0,0.5-0.3,0.6c-0.1-0.2-0.3-0.3-0.5-0.1c-0.5,0.6-0.9,1.3-0.6,2.1c0,0.1,0,0.1-0.1,0.1c-0.9-0.4-1,0.5-1.2,0.8
			c-0.6,1-1.1,2.1-1.7,3.1c-1.7,2.7-3.1,5.5-4.7,8.3c-0.3,0.5-0.4,1.1-0.3,1.7c0,0.1,0,0.2-0.1,0.3c-0.3-0.1-0.7-0.1-0.8,0.2
			c-0.7,1.8-2.1,3.2-2.7,5c-0.3,0.3,0,0.5,0.2,0.6c-0.1,0-0.2-0.1-0.2-0.1c-0.2,0-0.4,0.2-0.4,0.4c0.2-0.1,0.3,0,0.3,0.2
			c-0.8-0.3-0.8,0.4-1.1,0.8c-0.2,0.3-0.1,0.5,0.3,0.6c-0.1,0.3-0.1,0.6-0.5,0.6c-0.1,0-0.1-0.1-0.2-0.1c0,0.1,0.1,0.1,0.1,0.2
			c-0.1,0.2-0.1,0.5-0.2,0.7c-1.4-0.2-0.8,0.7-0.8,1.3c-0.1,0-0.1-0.1-0.2-0.1c-0.2,0-0.4,0.2-0.4,0.4c0.2-0.1,0.3,0,0.3,0.2
			c-0.7-0.3-0.9,0.6-1.6,0.6c-4.7-0.1-9.4,0-14.1,0c-0.7,0-0.8-0.2-0.4-0.8c0.8-1.3,1.5-2.6,2.2-4c0.3-0.5,0.6-1,0.2-1.6
			c0-0.1,0-0.1,0.1-0.1c0.5,0.4,0.8,0,0.9-0.4c0.5-1.3,1.2-2.4,1.9-3.6c0.2-0.3,0.4-0.7,0.1-1.2c0-0.1,0-0.1,0.1-0.1
			c0.9,0.2,0.6-0.3,0.5-0.8c0,0,0,0,0,0c0.6,0,0.8-0.3,0.5-0.8c0-0.1,0-0.1,0.1-0.1c0.6,0.4,0.8-0.2,1-0.5c1.6-2.9,3.2-5.8,4.9-8.6
			c0.3-0.4,0.4-0.8,0.1-1.3c0-0.1,0-0.1,0.1-0.1c0.4,0.3,0.7,0,0.9-0.3c0.9-1.6,1.7-3.2,2.7-4.7c0.2-0.3,0.5-0.8,0.1-1.2
			c3.2-5.5,6.4-11.1,9.6-16.6c1.1-0.3,1.3-0.6,0.7-1.3c0.1-0.1,0.3-0.2,0.4-0.3c0,0.1,0,0.1,0.1,0.2c0-0.1,0-0.1-0.1-0.2l-0.1,0
			c0,0-0.1-0.1-0.1-0.1c0.7-0.2,1-0.6,0.8-1.4c0,0,0-0.1,0.1-0.1c0.4,0.3,0.5-0.1,0.7-0.4c1.3-1.6,1.9-3.6,3.1-5.3
			c0.5-0.7,1-1.5,0.8-2.5c0-0.1,0-0.1,0.1-0.1c0.9,0,1.1-0.4,0.9-1.6c0,0,0-0.1,0.1-0.1c0.5,0.3,0.6,0,0.9-0.4
			c1.1-1.8,2-3.6,3.2-5.4c0.2-0.3,0.9-0.8,0.1-1.3c0.7-1.3,1.4-2.6,2.2-3.9c0.4-0.6,0.4-0.9,0-1.5c-1.6-3-3.2-6-4.8-9
			c0.6-1,0-1.3-0.8-1.5c-0.2-0.1-0.2-0.3-0.3-0.5c0.4-1-0.6-2.8-1.7-3c-0.1-0.1-0.1-0.1,0-0.2c0-0.3,0.1-0.7,0-1
			c-0.5-0.9-0.4-2.2-1.9-2.4c-0.1,0-0.1-0.1-0.1-0.1c0.2-0.2,0.1-0.4,0-0.7c-0.5-1.9-1.7-3.4-2.6-5c-1.1-2-2.1-4-3.2-6
			c-1.6-3-3.5-6-4.9-9.2c-0.3-0.7-0.5-1.4-1.2-1.8c-0.9-2.7-2.5-5-3.9-7.5c-0.2-0.3-0.5-0.6-0.3-1c0.2-0.4,0.7-0.3,1-0.3
			c3.8,0,7.7,0.1,11.5,0c1.7-0.1,3,0.1,3.7,1.8c0,0.2,0,0.4,0,0.5c0.8,1.5,1.7,2.9,2.5,4.5c0.4,0.7,0.6,1.8,1.7,1.8l0,0.1
			c0,0-0.1,0-0.1,0c0,0.1,0,0.1,0,0.2c0-0.1,0-0.1,0-0.2c0.1,0.1,0.3,0.2,0.4,0.3c-0.7,0.3-0.3,0.7-0.1,1.1c1.2,2.3,2.4,4.7,3.7,6.9
			c0.5,0.8,0.6,2,1.8,2.3c0,0,0,0,0,0c0,1.2,0.7,2.1,1.2,3c2,3.8,4,7.5,5.9,11.3c0.2,0.5,0.5,1,1.2,1c0,0,0,0,0,0
			c0,0.1-0.1,0.3,0.1,0.3C-352.3,44.6-352.3,44.4-352.3,44.3z"/>
		<path class="st6" d="M-370.6,11.4c-0.7-1.7-2.1-1.9-3.7-1.8c-3.8,0.1-7.7,0-11.5,0c-0.3,0-0.8-0.2-1,0.3c-0.2,0.4,0.1,0.7,0.3,1
			c1.4,2.5,3,4.8,3.9,7.5c-0.1,0-0.3,0-0.4,0.1c-1.7-3.1-3.4-6.3-5.2-9.6c4.7,0,9.1,0,13.6,0c0.3,0,0.5,0,0.8,0
			c2.1-0.5,3.3,0.5,3.9,2.5C-370.3,11.4-370.4,11.4-370.6,11.4z"/>
		<path class="st6" d="M-237.2,16.7c-0.4-0.2-0.5-0.4-0.2-0.9c1.2-1.8,1.8-3.9,3.2-5.5c0.2-0.3,0.1-0.5-0.2-0.5
			c-0.3-0.1-0.6-0.1-0.9-0.1c-4.3,0-8.7,0-13,0c-0.8,0-1.2,0.1-1.6,1c-0.6,1.2-1,2.6-2.4,3.3c0.8-1.5,1.5-2.9,2.3-4.4
			c0.2-0.5,0.6-0.6,1.1-0.6c5.2,0,10.4,0,15.8,0C-234.4,11.6-235.9,14.1-237.2,16.7z"/>
		<path class="st7" d="M-398.7,125.1c0.4,0.6,0.1,1.1-0.2,1.6c-0.8,1.3-1.5,2.7-2.2,4c-0.4,0.6-0.3,0.8,0.4,0.8c4.7,0,9.4,0,14.1,0
			c0.7,0,0.9-0.9,1.6-0.6c-0.3,1.1-1,1.4-2.1,1.4c-4.9-0.1-9.9,0-14.8,0c-0.2,0-0.5,0-0.8,0C-401.4,129.7-400,127.4-398.7,125.1z"/>
		<path class="st6" d="M-250,80.2c-0.3,0.4-0.5,0.2-0.7,0c-0.3-0.5-0.6-0.9-1.2-0.9c-0.3,0-0.5-0.3-0.3-0.6c0.5-1-0.3-1.7-0.7-2.4
			c-2.1-3.4-4.1-6.8-6.2-10.2c-1-1.7-2.2-3.2-2.7-5.1c-0.2-0.6-0.2-0.9,0.5-0.8c0.2,0.1,0.2,0.3,0.3,0.6c-0.3,0.5-0.2,0.9,0.2,1.4
			c3.6,5.9,7.1,11.7,10.7,17.6C-250.1,79.9-250.1,80-250,80.2z"/>
		<path class="st8" d="M-383.1,18.5c0.1,0,0.3,0,0.4-0.1c0.7,0.4,1,1.2,1.2,1.8c1.4,3.2,3.2,6.1,4.9,9.2c1.1,2,2,4,3.2,6
			c0.9,1.6,2.1,3.1,2.6,5c0.1,0.3,0.2,0.5,0,0.7c-3.7-6.8-7.4-13.6-11.1-20.5C-382.3,20-382.7,19.2-383.1,18.5z"/>
		<path class="st8" d="M-276.4,31.5c-1.1-0.2-1.4-1.2-1.9-2c-1.7-3.1-3.6-6.2-5.4-9.3c-0.9-1.6-1.8-3.2-2.8-4.7
			c-0.8-1.3-1.6-2.6-2.2-4.1c-0.1-0.2-0.1-0.5-0.1-0.7c4.1,6.8,8.2,13.7,12.2,20.5C-276.4,31.2-276.4,31.4-276.4,31.5z"/>
		<path class="st8" d="M-296.7,24.5c1.4,0.2,1.6,1.5,2.1,2.4c1.1,1.8,2.1,3.7,3.1,5.6c1,1.9,2.3,3.7,3.3,5.6
			c0.9,1.8,2.1,3.6,3.2,5.4c0.3,0.4,0.5,0.9,0.2,1.4c-3.1-5.2-6.2-10.4-9.2-15.6C-294.9,27.7-295.8,26.1-296.7,24.5z"/>
		<path class="st8" d="M-325.8,81.5c-0.4,0.2-0.6,0.1-0.8-0.2c-1.9-2.9-3.8-5.7-5.4-8.7c-0.9-1.6-2.2-2.9-2.9-4.6
			c-0.2-0.3-0.4-0.7-0.9-0.8c-1-0.3-1.1-0.8-0.4-1.8c2.8,3.4,4.8,7.4,7.3,11C-327.8,78-326.8,79.8-325.8,81.5z"/>
		<path class="st8" d="M-261.1,60.7c0-0.2,0-0.4-0.3-0.6c0.6-1.7,1.8-3.1,2.6-4.6c1.6-3.1,3.3-6.1,5-9.2c0.2-0.4,0.3-1.2,1.1-0.8
			C-255.4,50.6-258.1,55.7-261.1,60.7z"/>
		<path class="st8" d="M-352.5,44.3c-0.7,0-0.9-0.5-1.2-1c-1.9-3.8-4-7.6-5.9-11.3c-0.5-0.9-1.2-1.9-1.2-3c1.1,1.2,1.6,2.7,2.4,4
			C-356.4,36.7-354.5,40.5-352.5,44.3z"/>
		<path class="st8" d="M-361.4,88.9c-0.7-1.2,0.4-1.9,0.8-2.7c1.3-2.5,2.9-4.9,4.3-7.5c0.6-1.2,1.4-2.3,2.1-3.5
			c0.1-0.3,0.3-0.8,0.7-0.2c-1.1,2.3-2.5,4.4-3.7,6.6C-358.6,84-360,86.5-361.4,88.9z"/>
		<path class="st8" d="M-378.9,119.7c-0.1-0.6,0-1.2,0.3-1.7c1.6-2.8,3-5.6,4.7-8.3c0.6-1,1.1-2.1,1.7-3.1c0.2-0.4,0.3-1.3,1.2-0.8
			C-373.6,110.4-376.2,115.1-378.9,119.7z"/>
		<path class="st8" d="M-368.8,101.6c-0.2-0.7,0.1-1.2,0.4-1.8c1.6-2.8,3-5.6,4.9-8.2c0.5-0.6,0.7-1.4,1-2.1c0.2-0.4,0.4-0.9,1-0.6
			c-2.3,4.1-4.6,8.2-6.9,12.2C-368.5,101.4-368.7,101.5-368.8,101.6z"/>
		<path class="st8" d="M-288.7,10.6c-0.4,0.1-0.6-0.2-0.7-0.4c-1-1.8-2.3-3.3-3.1-5.1c-0.6-1.3-1.7-2.3-2.3-3.7
			c-0.5-1.3-1.7-2.1-1.9-3.6c0-0.2-0.1-0.4,0.1-0.6C-293.9,1.7-291.3,6.2-288.7,10.6z"/>
		<path class="st7" d="M-219.9,131.7c0.3-0.2,0.2-0.5,0.3-0.8c0.3,0.4,0.5,0.7,0.7,1.1c-0.3,0.4-0.7,0.2-1,0.2
			c-4.3,0-8.5,0-12.8,0.1c-1.2,0-1.9-0.4-2.1-1.5c0.5-0.1,0.6,0.4,0.8,0.7c0.4,0.4,0.9,0.2,1.3,0.2
			C-228.4,131.7-224.2,131.7-219.9,131.7z"/>
		<path class="st9" d="M-280.3,94.1c-1.2,0.4-1.3-0.8-1.8-1.3c-0.9-0.9-2-1-3.1-1.2c-2.3-0.5-4.1,0.6-5.7,2.2
			c-0.5,0.5-0.7,1.4-1.7,1.1c1.2-1.7,2.6-3.1,4.7-3.6C-284.8,90.4-282,91.4-280.3,94.1z"/>
		<path class="st7" d="M-277,58.2c1.2,0.6,1.7,1.8,2.3,2.9c0.9,1.8,2.2,3.5,3.1,5.3c0.7,1.4,1.4,2.7,2.2,4c-0.1,0.1-0.2,0.2-0.3,0.3
			C-272.2,66.6-274.6,62.4-277,58.2z"/>
		<path class="st8" d="M-252.6,45.4c-0.3-0.5-0.3-1,0-1.4c1.3-1.5,1.7-3.4,2.8-5c1.4-1.9,2-4.3,3.4-6.2c0.2-0.3,0.2-0.7,0.7-0.4
			C-248,36.8-250.3,41.1-252.6,45.4z"/>
		<path class="st7" d="M-336.7,45.4c-0.2-0.8,0.2-1.5,0.6-2.1c1.8-2.5,3-5.3,4.6-7.9c0.5-0.8,1.2-1.5,1.4-2.4
			c0.1-0.4,0.4-0.5,0.8-0.2C-331.7,36.9-334.2,41.1-336.7,45.4z"/>
		<path class="st8" d="M-360.8,29c-1.2-0.3-1.3-1.5-1.8-2.3c-1.3-2.2-2.5-4.6-3.7-6.9c-0.2-0.4-0.6-0.8,0.1-1.1
			c1.6,3,3.3,6.1,4.9,9.1C-361,28.1-360.7,28.5-360.8,29z"/>
		<path class="st8" d="M-245.6,32.3c-0.2-0.4-0.4-0.9-0.1-1.2c1.4-1.8,2-4,3.3-5.9c0.9-1.2,1.1-2.7,2.1-3.9c0.2-0.3,0.3-0.5,0.6-0.1
			C-241.6,25-243.6,28.7-245.6,32.3z"/>
		<path class="st7" d="M-388.6,107.5c0.3,0.4,0.2,0.8-0.1,1.3c-1.6,2.9-3.3,5.7-4.9,8.6c-0.2,0.4-0.4,0.9-1,0.5
			C-392.6,114.5-390.6,111-388.6,107.5z"/>
		<path class="st7" d="M-318.6-12.8c0.4,1.5-1,2.3-1.5,3.4c-0.9,1.9-2.1,3.7-3.2,5.6c-0.4,0.6-0.7,1.4-1.5,1.6
			C-323-5.8-320.8-9.3-318.6-12.8z"/>
		<path class="st7" d="M-248.3,107.4c1.1-0.1,1.3,1,1.5,1.5c0.8,1.9,2.1,3.5,3.1,5.3c0.3,0.6,0.5,1.1,0.4,1.7
			C-245,113.1-246.7,110.3-248.3,107.4z"/>
		<path class="st7" d="M-319.4,15.8c-0.3-0.4-0.2-0.9,0.1-1.3c1.6-2,2.2-4.5,3.9-6.4c0.2-0.2,0.3-0.5,0.7-0.4
			C-316.3,10.4-317.9,13.1-319.4,15.8z"/>
		<path class="st9" d="M-368.8,73.1c0.2,1-0.4,1.9-0.8,2.5c-1.2,1.7-1.8,3.7-3.1,5.3c-0.2,0.3-0.3,0.6-0.7,0.4
			C-371.9,78.6-370.4,75.8-368.8,73.1z"/>
		<path class="st8" d="M-370.6,11.4c0.2,0,0.3,0,0.5,0c1.2,2.3,2.5,4.5,3.7,6.8c-1.1-0.1-1.3-1.1-1.7-1.8c-0.8-1.5-1.6-3-2.5-4.5
			C-370.6,11.8-370.6,11.6-370.6,11.4z"/>
		<path class="st9" d="M-363.6,64.2c0.8,0.5,0.1,1-0.1,1.3c-1.2,1.7-2.1,3.6-3.2,5.4c-0.2,0.4-0.4,0.6-0.9,0.4
			C-366.3,68.9-364.9,66.5-363.6,64.2z"/>
		<path class="st7" d="M-262.4,83.2c1.2,0.1,1.5,1.3,1.9,2.1c0.5,1.1,1,2.2,1.8,3.1c0.4,0.6,0.9,1.1,0.5,1.9
			C-259.6,88-261,85.6-262.4,83.2z"/>
		<path class="st9" d="M-328.3,3.5c0.5,1.1-0.5,1.8-1,2.6c-0.5,0.9-1.1,1.8-1.5,2.8c-0.3,0.8-0.7,1.5-1.6,1.7
			C-331.1,8.3-329.7,5.9-328.3,3.5z"/>
		<path class="st7" d="M-384.9,101.1c0.4,0.4,0.1,1-0.1,1.2c-1,1.5-1.8,3.2-2.7,4.7c-0.2,0.4-0.4,0.6-0.9,0.3
			C-387.3,105.3-386.1,103.2-384.9,101.1z"/>
		<path class="st8" d="M-269.6,70.7c0.1-0.1,0.2-0.2,0.3-0.3c1.4,2,2.9,3.9,3.2,6.3C-267.4,74.8-268.6,72.8-269.6,70.7z"/>
		<path class="st8" d="M-322,87.5c-0.4,0.3-0.6,0-0.8-0.3c-0.9-1.2-1.8-2.3-2.3-3.7c-0.2-0.6-1.3-1-0.6-1.9
			C-324.5,83.6-323.2,85.6-322,87.5z"/>
		<path class="st8" d="M-336.5,65.1c-0.7,0.1-1.2,0.1-1.6-0.6c-0.8-1.2-2.2-1.7-3.2-2.7c-0.2-0.2-0.5-0.3-0.1-0.6
			C-339.5,62.1-337.9,63.5-336.5,65.1z"/>
		<path class="st8" d="M-306.3,112.9c-0.4,0.1-0.7-0.1-0.9-0.5c-0.7-1.1-1.4-2.2-2.1-3.3c-0.3-0.4-0.4-0.9-0.1-1.4
			C-308.3,109.4-307.2,111.1-306.3,112.9z"/>
		<path class="st9" d="M-310.3,131c0.1-0.1,0.1-0.2,0.2-0.2c2.2,1.2,4.4,0.8,6.7,0.4C-305.6,132.7-307.9,132.6-310.3,131z"/>
		<path class="st7" d="M-328.6,31.3c0.4-2.3,2.2-3.8,3-5.8c0.1-0.2,0.4-0.2,0.7,0C-326.2,27.4-327.1,29.5-328.6,31.3z"/>
		<path class="st8" d="M-311.7,104.1c-0.2,0.2-0.5,0.2-0.7,0c-0.9-1.4-1.9-2.8-2.6-4.3c-0.1-0.3-0.1-0.6,0.1-0.8
			C-313.8,100.7-312.8,102.4-311.7,104.1z"/>
		<path class="st9" d="M-308.9,3.4c0.6,0,0.9,0.4,1.1,0.9c0.7,1.7,1.8,3.2,2.6,4.8c0.1,0.3,0.2,0.6,0.1,0.9
			C-306.4,7.8-307.7,5.6-308.9,3.4z"/>
		<path class="st8" d="M-281.5,50.3c0.4-0.3,0.7-0.1,0.8,0.3c0.4,1,1,1.9,1.6,2.7c0.5,0.7,0.8,1.4,0.6,2.3
			C-279.5,53.9-280.5,52.1-281.5,50.3z"/>
		<path class="st8" d="M-382.4,125.2c0.6-1.8,2-3.2,2.7-5c0.1-0.3,0.5-0.3,0.8-0.2c-1.1,1.8-2.1,3.7-3.2,5.5
			C-382.2,125.4-382.3,125.3-382.4,125.2z"/>
		<path class="st9" d="M-343.7,29.9c0.7,0.3,0.2,0.7,0,1c-0.6,0.9-1.1,1.8-1.5,2.8c-0.2,0.4-0.4,1-1.1,0.6
			C-345.5,32.8-344.6,31.4-343.7,29.9z"/>
		<path class="st7" d="M-395.7,119.8c0.3,0.4,0.1,0.8-0.1,1.2c-0.7,1.2-1.4,2.3-1.9,3.6c-0.2,0.4-0.4,0.8-0.9,0.4
			C-397.6,123.3-396.6,121.5-395.7,119.8z"/>
		<path class="st7" d="M-240.3,121.2c1.3,0.8,2.9,3.5,2.6,4.6C-238.5,124.3-239.4,122.7-240.3,121.2z"/>
		<path class="st8" d="M-273.6,36.2c-0.1,0.2-0.3,0.3-0.4,0.2c-0.6-1.5-2-2.7-2.4-4.3c0-0.2,0-0.4,0-0.6
			C-275.4,33-274.4,34.5-273.6,36.2z"/>
		<path class="st7" d="M-272.4,116.2c0.4-1.6,1-3.1,1.7-4.6C-270.4,113.4-271,115-272.4,116.2z"/>
		<path class="st8" d="M-317.5,94.8c-0.7,0.3-1.1,0.3-1.2-0.6c-0.1-0.8-0.6-1.4-1-2.1c-0.3-0.6-0.8-1.2-0.7-1.9
			C-319.4,91.8-318.4,93.3-317.5,94.8z"/>
		<path class="st7" d="M-339.3,49.9c-0.5-0.7,0.1-1.2,0.4-1.8c0.5-1.1,1.1-2.1,2.2-2.8C-337.5,46.9-338.4,48.4-339.3,49.9z"/>
		<path class="st8" d="M-298.8,20.7c0.4,0,0.8,0,1,0.5c0.4,0.8,0.8,1.7,1.3,2.5c0.1,0.3,0.2,0.6-0.2,0.6
			C-297.6,23.2-298.3,22-298.8,20.7z"/>
		<path class="st9" d="M-346.5,34.4c0.3,1.2-1.1,3.6-2.2,3.8C-347.9,36.9-347.2,35.7-346.5,34.4z"/>
		<path class="st8" d="M-315,98.9c-0.2,0.1-0.4,0.2-0.6,0.1c-1-1.1-1.8-2.4-1.9-4C-316.6,96.3-315.8,97.6-315,98.9z"/>
		<path class="st7" d="M-322.7,112.3c0.2-0.2,0.5-0.2,0.7,0c1,1.2,1.8,2.5,1.9,4.1C-321,115.1-321.9,113.7-322.7,112.3z"/>
		<path class="st7" d="M-279.2,116.9c0.1-0.2,0.3-0.3,0.5-0.2c1.5,0.8,3,0.8,4.5,0.2c0.2-0.1,0.4,0,0.6,0.1
			C-275.5,118.3-277.3,118.1-279.2,116.9z"/>
		<path class="st9" d="M-349.7,39.9c0.1,0.2,0.2,0.4,0.2,0.6c-0.6,1.1-1.1,2.1-1.8,3.2c-0.1,0.3-0.4,0.4-0.7,0.4
			C-351.4,42.6-350.5,41.3-349.7,39.9z"/>
		<path class="st7" d="M-338.6,21.1c0.1,1.5-1.3,3.9-2.4,4.1C-340.2,23.8-339.4,22.5-338.6,21.1z"/>
		<path class="st7" d="M-334.4,14.4c-0.2,1.3-0.9,2.4-1.8,3.4c-0.2,0.2-0.4,0.3-0.6,0.1c0.7-1.2,1.4-2.4,2.1-3.5
			C-334.6,14.4-334.5,14.4-334.4,14.4z"/>
		<path class="st8" d="M-296.6-2.9c-0.2,0.2-0.5,0.2-0.7,0c-0.6-1-1.2-2-1.8-3.1c-0.1-0.2,0.1-0.4,0.3-0.4
			C-298.1-5.2-297.3-4.1-296.6-2.9z"/>
		<path class="st8" d="M-284.5,45.3c1.5,0.8,2.4,2.4,2.1,3.6C-283.1,47.7-283.8,46.5-284.5,45.3z"/>
		<path class="st7" d="M-242.5,117.4c1.2,0,1.1,1.2,1.6,1.8c0.4,0.4,0.6,1.2,0.6,2C-241,119.9-241.7,118.7-242.5,117.4z"/>
		<path class="st8" d="M-370.7,41.3c1.4,0.2,1.4,1.5,1.9,2.4c0.1,0.2,0,0.7,0,1C-369.6,43.6-370.2,42.4-370.7,41.3z"/>
		<path class="st7" d="M-316.5-16.3c0.1,1.7-0.7,2.8-2.1,3.6C-317.9-13.9-317.2-15.1-316.5-16.3z"/>
		<path class="st6" d="M-252.6,14.4c0.4,1-0.5,2.8-1.5,2.7C-253.7,16.1-253.2,15.3-252.6,14.4z"/>
		<path class="st8" d="M-302.5,108.1c0.1,0.1,0.2,0.2,0.2,0.3c-0.1,1-1.5,2.5-2.3,2.5C-303.9,110-303.2,109-302.5,108.1z"/>
		<path class="st8" d="M-368.8,44.8c1.1,0.3,2.1,2,1.7,3C-367.7,46.8-368.3,45.8-368.8,44.8z"/>
		<path class="st7" d="M-258.2,90.5c0.2-0.1,0.4-0.2,0.6,0c0.6,0.9,1.5,1.6,1.1,2.8C-257.1,92.3-257.6,91.4-258.2,90.5z"/>
		<path class="st7" d="M-336.9,18.1c0.3,1.2-0.7,2.8-1.7,2.9C-338,20-337.5,19.1-336.9,18.1z"/>
		<path class="st7" d="M-270.7,111.1c-0.8-0.3-1.7-2.1-1.5-3C-271.5,109-270.8,109.9-270.7,111.1z"/>
		<path class="st7" d="M-324.9-2.2c0.2,1.4-0.8,2.2-1.5,3.2c0,0-0.2-0.1-0.3-0.1C-326.1-0.1-325.5-1.2-324.9-2.2z"/>
		<path class="st8" d="M-304.7,111c0.6,0.9-0.4,1.5-0.6,2.2c-0.1,0.3-0.8,0.4-0.9-0.3C-305.6,112.4-305.3,111.6-304.7,111z"/>
		<path class="st8" d="M-327.5,104.8c0.1,0,0.3-0.2,0.3-0.1c0.6,0.3,1.5,2,1.3,2.8C-326.5,106.7-327,105.7-327.5,104.8z"/>
		<path class="st7" d="M-313.6,5.7c-0.1-1.5,0.6-2.8,1.7-2.9C-312.5,3.8-313.1,4.7-313.6,5.7z"/>
		<path class="st8" d="M-332.2,97.3c1.1,0.2,1.7,1.1,1.6,2.6C-331.2,99.1-331.7,98.2-332.2,97.3z"/>
		<path class="st7" d="M-313.8-20.2c-0.2,1.2-1.1,2.5-1.9,2.5C-315.2-18.6-314.8-19.6-313.8-20.2z"/>
		<path class="st8" d="M-266.1,76.7c1.4,0.7,1.9,1.6,1.6,2.8C-265.1,78.6-265.6,77.7-266.1,76.7z"/>
		<path class="st7" d="M-237.6,125.9c0.2-0.2,0.6-0.2,0.7,0c0.2,1.1,1.3,1.9,1.2,3.1C-236.4,128-237,126.9-237.6,125.9z"/>
		<path class="st7" d="M-250.1,104.3c1.3,0.7,1.9,1.6,1.5,2.6C-249.2,106.1-249.7,105.2-250.1,104.3z"/>
		<path class="st9" d="M-305.1,9.9c1.1,0.7,1.8,1.6,1.8,3C-304,12-304.7,11-305.1,9.9z"/>
		<path class="st7" d="M-278.4,55.6c1.1,0.5,1.7,1.3,1.5,2.5C-277.5,57.4-278.1,56.6-278.4,55.6z"/>
		<path class="st9" d="M-342,27.7c-0.5,0.7-0.5,1.9-1.7,2c0.5-0.8,0.9-1.5,1.4-2.3C-342.2,27.5-342.1,27.6-342,27.7z"/>
		<path class="st8" d="M-334,94.6c0.9-0.2,1.3,0.5,1.1,1.8C-333.2,95.8-333.8,95.3-334,94.6z"/>
		<path class="st7" d="M-324,110.4c0.9,0,1.4,0.7,1.2,1.9C-323.2,111.6-323.6,111-324,110.4z"/>
		<path class="st8" d="M-320.7,89.6c-1,0-1.4-0.6-1.2-1.9C-321.5,88.3-321.1,88.9-320.7,89.6z"/>
		<path class="st8" d="M-370.9,105.7c-0.3-0.8,0.1-1.5,0.6-2.1c0.2-0.2,0.3-0.1,0.5,0.1C-370.2,104.3-370.5,105-370.9,105.7z"/>
		<path class="st8" d="M-263.7,81c1.4,0,1,1,1.1,1.8C-263,82.2-263.3,81.6-263.7,81z"/>
		<path class="st8" d="M-329.8,101.3c0.9-0.4,0.8,0.4,1,0.8c0.2,0.4,0.4,0.8,0.4,1.3C-328.9,102.7-329.3,102-329.8,101.3z"/>
		<path class="st9" d="M-334.4,14.4c-0.1,0-0.2,0-0.3,0c0.3-0.6,0.7-1.2,1-1.9C-333.3,13.4-333.5,14.1-334.4,14.4z"/>
		<path class="st9" d="M-332.4,10.6c0.1,0.5-0.2,1-0.3,1.5c-0.1,0.4-0.4,0.6-0.8,0.3C-333.2,11.8-332.8,11.2-332.4,10.6z"/>
		<path class="st7" d="M-324.4,24.3c-0.1-0.6,0.2-1.1,0.3-1.6c0.1-0.3,0.4-0.6,0.7-0.2C-323.7,23.1-324,23.7-324.4,24.3z"/>
		<path class="st9" d="M-367.8,71.3c0.2,1.2,0,1.6-0.9,1.6C-368.4,72.4-368.1,71.9-367.8,71.3z"/>
		<path class="st7" d="M-383.3,127.7c-0.4,0-0.5-0.3-0.3-0.6c0.3-0.4,0.3-1.1,1.1-0.8C-382.8,126.8-383.1,127.3-383.3,127.7z"/>
		<path class="st8" d="M-310.7,105.7c-1.2,0.1-1.2-0.5-0.9-1.4C-311.3,104.7-311,105.2-310.7,105.7z"/>
		<path class="st8" d="M-325.8,107.6c1.4-0.5,0.8,1,1.4,1.3c-0.2,0-0.4,0-0.5,0C-325.2,108.4-325.5,108-325.8,107.6z"/>
		<path class="st9" d="M-311.6-21.2c-0.5,0.8-1.3,0.9-2.1,1C-313.1-20.9-312.4-21.1-311.6-21.2z"/>
		<path class="st9" d="M-327.2,2.4c-0.2,0.5-0.1,1.4-1.1,1.1c0.3-0.4,0.6-0.9,0.9-1.3C-327.3,2.2-327.2,2.3-327.2,2.4z"/>
		<path class="st8" d="M-366.9,48.3c0.8,0.2,1.4,0.5,0.8,1.5C-366.4,49.4-366.7,48.9-366.9,48.3z"/>
		<path class="st9" d="M-374.6,83.1c0.5,0.8,0.4,1-0.7,1.3C-375.1,84-374.8,83.6-374.6,83.1z"/>
		<path class="st9" d="M-307.5-20.3c-0.8-0.1-1.6-0.2-2.1-1C-308.8-21.1-308.1-20.8-307.5-20.3z"/>
		<path class="st9" d="M-303.3,12.9c1.1,0,0.9,0.8,0.8,1.5C-302.8,13.9-303.1,13.4-303.3,12.9z"/>
		<path class="st7" d="M-314.6,7.2c0.1-0.6-0.5-1.6,0.9-1.4C-314,6.3-314.3,6.7-314.6,7.2z"/>
		<path class="st7" d="M-320.3,17.2c0.1-0.6-0.4-1.5,0.9-1.4C-319.8,16.3-320.1,16.8-320.3,17.2z"/>
		<path class="st7" d="M-321.1,18.7c-0.2-0.8-0.1-1.3,0.8-1.5C-320.6,17.7-320.9,18.2-321.1,18.7z"/>
		<path class="st7" d="M-384.8,130.4c0-0.6-0.6-1.5,0.8-1.3C-384.3,129.5-384.6,130-384.8,130.4z"/>
		<path class="st7" d="M-340,51.1c-0.4-0.2-0.4-0.4-0.2-0.8c0.2-0.4,0.4-0.6,0.9-0.3C-339.5,50.4-339.8,50.7-340,51.1z"/>
		<path class="st7" d="M-243.3,115.9c0.8,0.1,1.2,0.5,0.8,1.3C-242.9,116.9-243.2,116.4-243.3,115.9z"/>
		<path class="st8" d="M-282.3,49c1.2-0.2,0.9,0.5,0.7,1.1C-281.9,49.8-282.1,49.4-282.3,49z"/>
		<path class="st8" d="M-264.5,79.7c0.9,0,1,0.1,0.7,1.1C-264,80.4-264.2,80.1-264.5,79.7z"/>
		<path class="st8" d="M-330.5,100.1c0.9-0.1,1,0,0.7,1.1C-330.1,100.8-330.3,100.4-330.5,100.1z"/>
		<path class="st9" d="M-348.9,38.6c0.1,0.6,0.5,1.4-0.7,1.2C-349.4,39.4-349.1,39-348.9,38.6z"/>
		<path class="st7" d="M-318.7,118.6c0.8,0,0.8,0.1,0.8,1.3C-318.4,119.7-318.5,119.1-318.7,118.6z"/>
		<path class="st7" d="M-327.2,2.4c-0.1-0.1-0.2-0.2-0.3-0.3c0.2-0.4,0.4-0.7,0.6-1.1C-326.5,1.6-326.6,2-327.2,2.4z"/>
		<path class="st9" d="M-279.6,95.3c-0.8,0.2-0.9,0-0.6-1.1C-280,94.5-279.7,94.8-279.6,95.3z"/>
		<path class="st9" d="M-292.7,94.9c0.4,0.9,0,1.1-0.8,1.1C-293.2,95.7-293,95.3-292.7,94.9z"/>
		<path class="st7" d="M-273.4,117c-0.4-1.2,0.5-0.8,1.1-0.9C-272.6,116.6-273,116.8-273.4,117z"/>
		<path class="st7" d="M-315.8-17.6c0.2,0.7,0.4,1.3-0.7,1.2C-316.2-16.8-316-17.2-315.8-17.6z"/>
		<path class="st7" d="M-311.9,2.7c-0.1-0.7-0.2-1.3,0.8-1.4C-311.4,1.8-311.6,2.3-311.9,2.7z"/>
		<path class="st8" d="M-369.5,103c-0.1-0.6-0.3-1.3,0.7-1.4C-368.9,102.2-369.2,102.6-369.5,103z"/>
		<path class="st8" d="M-309.9,106.9c-1,0.1-0.8-0.6-0.7-1.1C-310.4,106.1-310.2,106.5-309.9,106.9z"/>
		<path class="st7" d="M-220.3,129.7c-0.8-0.1-0.8-0.7-0.8-1.3C-220.8,128.8-220.5,129.2-220.3,129.7z"/>
		<path class="st7" d="M-235.5,129.5c0.8,0.1,0.8,0.7,0.8,1.3C-235,130.3-235.5,130-235.5,129.5z"/>
		<path class="st7" d="M-324.9,25.3c-0.4-0.7-0.1-1,0.6-1.1C-324.5,24.6-324.7,25-324.9,25.3z"/>
		<path class="st9" d="M-373.6,81.4c0.2,0.7-0.1,1.2-0.8,1.4C-374.1,82.3-373.8,81.8-373.6,81.4z"/>
		<path class="st9" d="M-309.6,2.1c0.8,0.1,0.8,0.7,0.8,1.3C-309.1,3-309.6,2.7-309.6,2.1z"/>
		<path class="st9" d="M-295.5,98.8c0.1,0.6,0,1-0.8,1C-296.1,99.4-295.9,99-295.5,98.8z"/>
		<path class="st9" d="M-302.5,130.5c0-0.6,0.1-1,0.8-1C-301.9,129.8-302.1,130.2-302.5,130.5z"/>
		<path class="st9" d="M-294,96.8c0.1,0.6-0.1,1-0.8,1C-294.6,97.4-294.4,97-294,96.8z"/>
		<path class="st8" d="M-332.8,96.5c1-0.3,0.5,0.5,0.6,0.9C-332.4,97.1-332.6,96.8-332.8,96.5z"/>
		<path class="st9" d="M-341.5,26.7c-0.2,0-0.3,0-0.5,0c0.1-0.3,0.3-0.5,0.4-0.8c0.1,0,0.2,0,0.3,0c0,0.1,0,0.2,0,0.2
			c0,0.1,0,0.2,0,0.3C-341.3,26.6-341.4,26.6-341.5,26.7z"/>
		<path class="st7" d="M-319.2,117.9c0.2-0.1,0.4-0.2,0.5,0c0.2,0.2,0,0.4-0.1,0.6C-319.1,118.4-319.1,118.1-319.2,117.9z"/>
		<path class="st8" d="M-328,104.1c0.2-0.1,0.4-0.2,0.5,0c0.2,0.2,0,0.4-0.1,0.6C-327.7,104.5-327.9,104.3-328,104.1z"/>
		<path class="st7" d="M-395.1,118.9c0.1,0.4,0.5,1-0.5,0.8C-395.4,119.4-395.3,119.2-395.1,118.9z"/>
		<path class="st7" d="M-324.5,109.6c0.2-0.1,0.4-0.2,0.5,0c0.2,0.2,0,0.4-0.1,0.6C-324.2,110-324.4,109.8-324.5,109.6z"/>
		<path class="st7" d="M-394.7,118.1c0.3,0.5,0.2,0.8-0.5,0.8C-395,118.6-394.8,118.3-394.7,118.1z"/>
		<path class="st8" d="M-309.4,107.6c-0.2,0.1-0.4,0.2-0.5,0c-0.2-0.2,0-0.4,0.1-0.6C-309.7,107.2-309.6,107.4-309.4,107.6z"/>
		<path class="st7" d="M-219.9,130.5c-0.6,0-0.5-0.4-0.5-0.8C-220.2,129.9-220,130.2-219.9,130.5z"/>
		<path class="st9" d="M-309.8,1.3c0.3,0.2,0.2,0.5,0.2,0.8c-0.2-0.3-0.3-0.5-0.5-0.8C-310,1.4-309.9,1.4-309.8,1.3z"/>
		<path class="st7" d="M-310.4,0.6c0,0.1,0,0.2,0,0.3c-0.2-0.1-0.3-0.2-0.5,0c-0.3-0.2-0.2-0.3,0-0.5
			C-310.7,0.4-310.5,0.5-310.4,0.6z"/>
		<path class="st9" d="M-295,98c0,0.4,0,0.8-0.5,0.8C-295.4,98.5-295.2,98.3-295,98z"/>
		<path class="st7" d="M-320.1,116.4c0.6,0,0.5,0.4,0.5,0.8C-319.8,116.9-320,116.7-320.1,116.4z"/>
		<path class="st9" d="M-293.5,96c0,0.4,0,0.8-0.5,0.7C-293.9,96.5-293.7,96.3-293.5,96z"/>
		<path class="st9" d="M-296.3,99.8c0,0.4,0,0.8-0.6,0.8C-296.8,100.2-296.6,100-296.3,99.8z"/>
		<path class="st8" d="M-320.3,90.3c-0.4,0-0.6-0.2-0.3-0.6C-320.5,89.9-320.4,90.1-320.3,90.3z"/>
		<path class="st7" d="M-317.9,119.9c0.3,0,0.7,0,0.3,0.5C-317.7,120.3-317.8,120.1-317.9,119.9z"/>
		<path class="st9" d="M-310.1-21.2c-0.3,0.3-0.7,0.4-1,0C-310.7-21.2-310.4-21.2-310.1-21.2z"/>
		<path class="st7" d="M-319.6,117.2c0.4,0,0.6,0.2,0.3,0.6C-319.4,117.6-319.5,117.4-319.6,117.2z"/>
		<path class="st7" d="M-221.4,128c-0.3,0-0.6-0.1-0.2-0.5C-221.6,127.6-221.5,127.8-221.4,128z"/>
		<path class="st8" d="M-328.4,103.4c0.4,0,0.6,0.2,0.3,0.6C-328.2,103.7-328.3,103.5-328.4,103.4z"/>
		<path class="st7" d="M-329.2,32.6c-0.3-0.4-0.1-0.5,0.3-0.6C-328.9,32.3-329.1,32.4-329.2,32.6z"/>
		<path class="st7" d="M-324.9,108.9c0.2,0,0.4,0,0.5,0c-0.1,0.2-0.1,0.4-0.2,0.6C-324.7,109.3-324.8,109.1-324.9,108.9z"/>
		<path class="st7" d="M-342,27.7c-0.1-0.1-0.2-0.2-0.3-0.3c0-0.2,0.1-0.4,0.3-0.5C-342,27.2-342,27.5-342,27.7z"/>
		<path class="st7" d="M-382.4,125.2c0.1,0.1,0.2,0.2,0.3,0.3c0,0.1-0.1,0.2-0.1,0.3C-382.4,125.6-382.7,125.5-382.4,125.2z"/>
		<path class="st7" d="M-309.8,1.3c-0.1,0-0.2,0-0.3,0c-0.1-0.2-0.2-0.3-0.3-0.5C-310.1,0.9-309.9,1.1-309.8,1.3z"/>
		<path class="st8" d="M-352.3,44.3c0,0.1-0.1,0.3-0.1,0.3c-0.2,0-0.1-0.2-0.1-0.3C-352.4,44.3-352.3,44.3-352.3,44.3z"/>
		<path class="st7" d="M-341,25.2c0,0.2,0,0.5-0.3,0.5C-341.2,25.5-341.2,25.3-341,25.2z"/>
		<path class="st8" d="M-366.5,18.3c0,0.1,0,0.1,0,0.2C-366.6,18.4-366.6,18.3-366.5,18.3C-366.5,18.3-366.5,18.3-366.5,18.3z"/>
		<path class="st9" d="M-374.2,82.8c0,0.1,0,0.1,0.1,0.2C-374.1,83-374.1,82.9-374.2,82.8C-374.2,82.8-374.2,82.8-374.2,82.8z"/>
		<path class="st7" d="M-383.9,128.4c0-0.1-0.1-0.1-0.1-0.2C-384,128.3-383.9,128.3-383.9,128.4
			C-383.8,128.4-383.9,128.4-383.9,128.4z"/>
		<path class="st7" d="M-328.9,31.8c0.1-0.1,0.1-0.2,0.2-0.3C-328.6,31.7-328.7,31.8-328.9,31.8z"/>
		<path class="st7" d="M-385.4,130.7c0-0.2,0.2-0.4,0.4-0.4C-384.9,130.6-385.1,130.7-385.4,130.7z"/>
		<path class="st9" d="M-348.7,38.5c0.1,0,0.1,0.1,0.2,0.1C-348.6,38.7-348.6,38.6-348.7,38.5C-348.7,38.5-348.7,38.5-348.7,38.5z"
			/>
		<path class="st7" d="M-382.9,126.1c0-0.2,0.2-0.4,0.4-0.4C-382.4,126-382.6,126.2-382.9,126.1z"/>
		<path class="st10" d="M-219.9,131.7c-4.3,0-8.5,0-12.8,0c-0.4,0-0.9,0.2-1.3-0.2c4.3,0,8.5,0,12.8,0
			C-220.8,131.5-220.3,131.3-219.9,131.7z"/>
		<path class="st9" d="M-310.4,0.6c-0.2-0.1-0.3-0.2-0.5-0.2c0.1-0.1,0.2-0.2,0.3-0.2C-310.3,0.2-310.3,0.4-310.4,0.6z"/>
		<path class="st7" d="M-341.2,26.2c0-0.1,0-0.2,0-0.2C-341.2,26-341.1,26.1-341.2,26.2C-341.1,26.2-341.2,26.2-341.2,26.2z"/>
		<path class="st7" d="M-341.5,26.7c0.1-0.1,0.2-0.2,0.2-0.2C-341.3,26.6-341.4,26.6-341.5,26.7z"/>
	</g>
</g>
<g id="Layer_3">
	<polygon class="st11" points="-219.9,131.7 -260.9,62.1 -233.1,8.9 -250,9.5 -268.7,44.3 -306.3,-19 -310.1,-21.2 -316.5,-16.4 
		-352.4,44.6 -371.1,8.8 -388.3,8.9 -361.3,58.8 -402.8,132.2 -387.2,132.2 -354.1,75.2 -310.8,0.4 -234,131.5 	"/>
	<path class="st11" d="M-344.9,60.1c0,0,4.9-3.4,18.2,19.4l20.4,33.3l13.6-17.9c0,0,7.3-9.6,12.5-0.8s9.6,16.9,9.6,16.9
		s0.1,9.6-8.5,5.8l-6.7-9.2l-15.9,21.7c0,0-3.7,6.4-9.7,0.4l-27.9-43.6l-4-5.9c0,0-4.8-4.6-9.5-5.6c-4.7-1,4.4-16.6,4.4-16.6
		L-344.9,60.1z"/>
	<path class="st12" d="M64.3,143.1c0.3,0.3,0.6,0.5,1.1,0.6c5.1,1.1,10.3,5.4,12,6.9c0.4,0.3,5.9,8.3,5.9,8.3l36.5,57.1
		c0.3,0.4,0.6,0.8,1,1.2c7.7,7,12.4-1.1,12.4-1.1l15.9-21.8c2.5-3.4,7.6-3.4,10.1,0l2.6,3.7c0.8,1.2,2.1,2,3.4,2.4
		c6.3,1.7,8.2-3.1,8.7-6.2c0.3-1.4,0-2.8-0.7-4c-1.9-3.5-6.5-11.8-11.8-20.8c-6.9-11.7-16.5,1-16.5,1l-12.5,16.4
		c-2.7,3.5-8,3.2-10.3-0.5L100,150c-17.6-30.3-24.1-25.8-24.1-25.8l-0.5-0.3"/>
	<path class="st12" d="M71.8,121.3L112,51.7c2.4-4.2,8.4-4.2,10.8,0l94.6,161.4c1.1,1.9,3.1,3.1,5.3,3.1l3.9,0.1
		c4.9,0.1,8-5.2,5.5-9.4l-46.9-79.6c-1.1-1.9-1.2-4.2-0.2-6.1l30.2-57.9c2.2-4.3-1-9.3-5.8-9.2l-8.1,0.3c-2.2,0.1-4.2,1.3-5.3,3.3
		l-17.8,33.2c-2.3,4.3-8.4,4.4-10.9,0.2l-43.3-73c-0.5-0.9-1.3-1.7-2.2-2.2l0,0c-9.1-3.5-12.3,4.7-12.7,5.4l-41.2,70
		c-2.5,4.2-8.7,4.1-10.9-0.3L39.3,57c-1.1-2.1-3.2-3.4-5.6-3.4l-8.5,0.1c-4.7,0-7.7,5.1-5.5,9.2l29.2,53.9c1,1.9,1,4.2-0.1,6.1
		l-48,85c-2.4,4.2,0.6,9.3,5.4,9.3l6.4,0c2.2,0,4.3-1.2,5.4-3.1l42-72.4l0.7-1.2"/>
</g>
</svg>
